{
    "asset" : {
        "generator" : "Khronos glTF Blender I/O v1.6.16",
        "version" : "2.0"
    },
    "scene" : 0,
    "scenes" : [
        {
            "name" : "Scene",
            "nodes" : [
                0,
                1,
                2,
                3
            ]
        }
    ],
    "nodes" : [
        {
            "mesh" : 0,
            "name" : "Land",
            "rotation" : [
                0,
                0.4660242199897766,
                0,
                0.8847719430923462
            ],
            "translation" : [
                1.2454975843429565,
                0.2697591483592987,
                5.054250717163086
            ]
        },
        {
            "mesh" : 1,
            "name" : "PortalMetaverse",
            "rotation" : [
                -0.20647825300693512,
                0.208449587225914,
                -0.6727674603462219,
                0.6791902780532837
            ],
            "translation" : [
                -3.096698760986328,
                0.887173056602478,
                2.4664015769958496
            ]
        },
        {
            "mesh" : 2,
            "name" : "PortalMetaverseEffect",
            "rotation" : [
                -0.20647825300693512,
                0.208449587225914,
                -0.6727674603462219,
                0.6791902780532837
            ],
            "translation" : [
                -3.0061557292938232,
                0.8882123231887817,
                2.4050452709198
            ]
        },
        {
            "mesh" : 3,
            "name" : "Chain",
            "rotation" : [
                -0.27712979912757874,
                0.4537399709224701,
                -0.6270644068717957,
                0.5693060159683228
            ],
            "translation" : [
                -0.6325814723968506,
                2.319913864135742,
                4.519618511199951
            ]
        }
    ],
    "materials" : [
        {
            "doubleSided" : true,
            "name" : "base",
            "pbrMetallicRoughness" : {
                "baseColorFactor" : [
                    0.005243515595793724,
                    0.005243515595793724,
                    0.005243515595793724,
                    1
                ],
                "metallicFactor" : 0
            }
        },
        {
            "doubleSided" : true,
            "name" : "Material",
            "pbrMetallicRoughness" : {
                "baseColorFactor" : [
                    1,
                    1,
                    1,
                    0.44545453786849976
                ],
                "baseColorTexture" : {
                    "index" : 0
                },
                "metallicFactor" : 0
            }
        },
        {
            "alphaMode" : "BLEND",
            "name" : "Material.002",
            "pbrMetallicRoughness" : {
                "baseColorTexture" : {
                    "index" : 1
                },
                "metallicFactor" : 0
            }
        }
    ],
    "meshes" : [
        {
            "name" : "Land",
            "primitives" : [
                {
                    "attributes" : {
                        "POSITION" : 0,
                        "NORMAL" : 1,
                        "TEXCOORD_0" : 2
                    },
                    "indices" : 3,
                    "material" : 0
                }
            ]
        },
        {
            "name" : "PortalMetaverse",
            "primitives" : [
                {
                    "attributes" : {
                        "POSITION" : 4,
                        "NORMAL" : 5,
                        "TEXCOORD_0" : 6
                    },
                    "indices" : 7,
                    "material" : 1
                }
            ]
        },
        {
            "name" : "PortalMetaverseEffect",
            "primitives" : [
                {
                    "attributes" : {
                        "POSITION" : 8,
                        "NORMAL" : 9,
                        "TEXCOORD_0" : 10
                    },
                    "indices" : 7,
                    "material" : 2
                }
            ]
        },
        {
            "name" : "Chain",
            "primitives" : [
                {
                    "attributes" : {
                        "POSITION" : 11,
                        "NORMAL" : 12,
                        "TEXCOORD_0" : 13
                    },
                    "indices" : 14,
                    "material" : 0
                }
            ]
        }
    ],
    "textures" : [
        {
            "sampler" : 0,
            "source" : 0
        },
        {
            "sampler" : 0,
            "source" : 1
        }
    ],
    "images" : [
        {
            "bufferView" : 8,
            "mimeType" : "image/png",
            "name" : "texture_metavergesg"
        },
        {
            "bufferView" : 12,
            "mimeType" : "image/png",
            "name" : "portal"
        }
    ],
    "accessors" : [
        {
            "bufferView" : 0,
            "componentType" : 5126,
            "count" : 15524,
            "max" : [
                10.182256698608398,
                5.097891807556152,
                8.759967803955078
            ],
            "min" : [
                -2.127284049987793,
                -27.61226463317871,
                -8.997821807861328
            ],
            "type" : "VEC3"
        },
        {
            "bufferView" : 1,
            "componentType" : 5126,
            "count" : 15524,
            "type" : "VEC3"
        },
        {
            "bufferView" : 2,
            "componentType" : 5126,
            "count" : 15524,
            "type" : "VEC2"
        },
        {
            "bufferView" : 3,
            "componentType" : 5123,
            "count" : 22626,
            "type" : "SCALAR"
        },
        {
            "bufferView" : 4,
            "componentType" : 5126,
            "count" : 4,
            "max" : [
                1.0530931949615479,
                0.020097464323043823,
                0.6498169898986816
            ],
            "min" : [
                -2.8118956089019775,
                -0.04932375252246857,
                -0.5776889324188232
            ],
            "type" : "VEC3"
        },
        {
            "bufferView" : 5,
            "componentType" : 5126,
            "count" : 4,
            "type" : "VEC3"
        },
        {
            "bufferView" : 6,
            "componentType" : 5126,
            "count" : 4,
            "type" : "VEC2"
        },
        {
            "bufferView" : 7,
            "componentType" : 5123,
            "count" : 6,
            "type" : "SCALAR"
        },
        {
            "bufferView" : 9,
            "componentType" : 5126,
            "count" : 4,
            "max" : [
                1.0530931949615479,
                0.020097464323043823,
                0.6498169898986816
            ],
            "min" : [
                -2.8118956089019775,
                -0.04932375252246857,
                -0.5776889324188232
            ],
            "type" : "VEC3"
        },
        {
            "bufferView" : 10,
            "componentType" : 5126,
            "count" : 4,
            "type" : "VEC3"
        },
        {
            "bufferView" : 11,
            "componentType" : 5126,
            "count" : 4,
            "type" : "VEC2"
        },
        {
            "bufferView" : 13,
            "componentType" : 5126,
            "count" : 28000,
            "max" : [
                3.5792455673217773,
                8.124343872070312,
                0.7732505202293396
            ],
            "min" : [
                -0.7104938626289368,
                -0.17497727274894714,
                -5.116858959197998
            ],
            "type" : "VEC3"
        },
        {
            "bufferView" : 14,
            "componentType" : 5126,
            "count" : 28000,
            "type" : "VEC3"
        },
        {
            "bufferView" : 15,
            "componentType" : 5126,
            "count" : 28000,
            "type" : "VEC2"
        },
        {
            "bufferView" : 16,
            "componentType" : 5123,
            "count" : 42024,
            "type" : "SCALAR"
        }
    ],
    "bufferViews" : [
        {
            "buffer" : 0,
            "byteLength" : 186288,
            "byteOffset" : 0
        },
        {
            "buffer" : 0,
            "byteLength" : 186288,
            "byteOffset" : 186288
        },
        {
            "buffer" : 0,
            "byteLength" : 124192,
            "byteOffset" : 372576
        },
        {
            "buffer" : 0,
            "byteLength" : 45252,
            "byteOffset" : 496768
        },
        {
            "buffer" : 0,
            "byteLength" : 48,
            "byteOffset" : 542020
        },
        {
            "buffer" : 0,
            "byteLength" : 48,
            "byteOffset" : 542068
        },
        {
            "buffer" : 0,
            "byteLength" : 32,
            "byteOffset" : 542116
        },
        {
            "buffer" : 0,
            "byteLength" : 12,
            "byteOffset" : 542148
        },
        {
            "buffer" : 0,
            "byteLength" : 756978,
            "byteOffset" : 542160
        },
        {
            "buffer" : 0,
            "byteLength" : 48,
            "byteOffset" : 1299140
        },
        {
            "buffer" : 0,
            "byteLength" : 48,
            "byteOffset" : 1299188
        },
        {
            "buffer" : 0,
            "byteLength" : 32,
            "byteOffset" : 1299236
        },
        {
            "buffer" : 0,
            "byteLength" : 159488,
            "byteOffset" : 1299268
        },
        {
            "buffer" : 0,
            "byteLength" : 336000,
            "byteOffset" : 1458756
        },
        {
            "buffer" : 0,
            "byteLength" : 336000,
            "byteOffset" : 1794756
        },
        {
            "buffer" : 0,
            "byteLength" : 224000,
            "byteOffset" : 2130756
        },
        {
            "buffer" : 0,
            "byteLength" : 84048,
            "byteOffset" : 2354756
        }
    ],
    "samplers" : [
        {
            "magFilter" : 9729,
            "minFilter" : 9987,
            "wrapS" : 33071,
            "wrapT" : 33071
        }
    ],
    "buffers" : [
        {
            "byteLength" : 2438804,
            "uri" : "data:application/octet-stream;base64,"
        }
    ]
}
