<svg width="335" height="57" viewBox="0 0 335 57" fill="none" xmlns="http://www.w3.org/2000/svg">
<g clip-path="url(#clip0_2385_17)">
<path d="M36.3229 5.62402H0V14.8566H12.6708V35.0002H23.6521V14.8566H36.3229V5.62402Z" fill="white"/>
<path d="M69.1227 35.0002H81.2021L68.9537 5.62402H52.6507L40.4023 35.0002H52.4817L54.509 29.7125H67.0953L69.1227 35.0002ZM57.3811 22.1586L60.8022 13.1779L64.2233 22.1586H57.3811Z" fill="white"/>
<path d="M101.71 5.62402H90.7285V35.0002H101.71V5.62402Z" fill="white"/>
<path d="M154.053 5.62402H138.425L124.825 17.1227V5.62402H113.844V35.0002H124.825V29.4187L129.387 25.6838L138.848 35.0002H154.053L137.031 19.4728L154.053 5.62402Z" fill="white"/>
<path d="M241.06 0.419434H204.737V9.65195H217.408V29.7956H228.389V9.65195H241.06V0.419434Z" fill="black"/>
<path d="M250.145 19.4302C250.145 28.1592 256.903 30.2155 269.025 30.2155C281.147 30.2155 287.904 28.1592 287.904 20.0597C287.904 12.38 280.682 11.5826 269.025 11.121C262.605 10.8692 261.549 10.9111 261.549 9.77807C261.549 8.64499 262.605 8.39319 267.758 8.39319C273.122 8.39319 275.656 8.72891 275.656 10.2817H286.637C286.637 2.76975 280.133 0 268.603 0C256.945 0 250.568 2.76975 250.568 9.23251C250.568 16.073 255.678 18.2552 269.025 18.6748C275.952 18.8847 276.923 19.0525 276.923 20.3115C276.923 21.4026 275.952 21.8223 269.447 21.8223C262.478 21.8223 261.127 20.8571 261.127 19.4302H250.145Z" fill="black"/>
<path d="M335 15.0656V0.419434H324.019V15.0656C324.019 18.1711 322.878 20.9828 316.416 20.9828C309.954 20.9828 308.814 18.213 308.814 15.0656V0.419434H297.832V15.0656C297.832 25.3053 303.408 30.2153 316.416 30.2153C329.383 30.2153 335 25.2633 335 15.0656Z" fill="black"/>
<path d="M163.583 5.62403V35.0002H164.965L170.22 5.62402L163.583 5.62403Z" fill="white"/>
<path d="M195.254 8.81264V0.419448L171.076 0.419434L165.821 29.7956H195.254V21.4024H174.98V18.6746H195.254V11.5404H174.98V8.81264H195.254Z" fill="black"/>
<path d="M87.3796 47.6001H84.4636L80.9476 53.5281L77.4316 47.6001H74.5156V56.0001H76.6756V50.2401L80.1676 56.0001H81.7276L85.2196 50.2401V56.0001H87.3796V47.6001Z" fill="white"/>
<path d="M108.744 49.3161V47.6001H99.8643V56.0001H108.744V54.2841H102.024V52.5801H108.744V51.0201H102.024V49.3161H108.744Z" fill="white"/>
<path d="M131.182 47.6001H120.862V49.4121H124.942V56.0001H127.102V49.4121H131.182V47.6001Z" fill="white"/>
<path d="M150.023 56.0001H152.411L148.067 47.6001H145.151L140.819 56.0001H143.195L144.095 54.2121H149.123L150.023 56.0001ZM144.899 52.6041L146.615 49.1961L148.319 52.6041H144.899Z" fill="white"/>
<path d="M169.968 47.6001L166.596 54.4041L163.224 47.6001H160.8L165.12 56.0001H168.072L172.392 47.6001H169.968Z" fill="white"/>
<path d="M193.309 49.3161V47.6001H184.429V56.0001H193.309V54.2841H186.589V52.5801H193.309V51.0201H186.589V49.3161H193.309Z" fill="white"/>
<path d="M215.433 50.6841C215.433 48.8121 214.125 47.6001 212.217 47.6001H205.617V56.0001H207.777V53.7561H211.257L212.613 56.0001H215.157L213.609 53.5041C214.737 53.0601 215.433 52.0521 215.433 50.6841ZM207.777 49.4121H211.617C212.265 49.4121 213.273 49.4121 213.273 50.6841C213.273 51.9441 212.265 51.9441 211.617 51.9441H207.777V49.4121Z" fill="white"/>
<path d="M227.411 53.108C227.411 55.532 229.463 56.12 232.907 56.12C236.015 56.12 238.139 55.664 238.139 53.42C238.139 51.296 236.087 51.116 232.775 50.936C230.327 50.792 229.823 50.672 229.823 50.024C229.823 49.4 230.327 49.196 232.451 49.196C234.695 49.196 235.619 49.424 235.619 50.348H237.779C237.779 48.272 235.859 47.48 232.691 47.48C229.547 47.48 227.663 48.068 227.663 49.916C227.663 51.8 229.115 52.376 232.775 52.544C235.499 52.676 235.979 52.796 235.979 53.492C235.979 54.152 235.295 54.404 233.027 54.404C230.291 54.404 229.571 53.996 229.571 53.108H227.411Z" fill="white"/>
<path d="M259.322 49.3161V47.6001H250.442V56.0001H259.322V54.2841H252.602V52.5801H259.322V51.0201H252.602V49.3161H259.322Z" fill="white"/>
</g>
<defs>
<clipPath id="clip0_2385_17">
<rect width="335" height="57" fill="white"/>
</clipPath>
</defs>
</svg>
